<svg width="466" height="148" viewBox="0 0 466 148" fill="none" xmlns="http://www.w3.org/2000/svg">
<path fill-rule="evenodd" clip-rule="evenodd" d="M376.139 8.11304C412.298 8.11304 441.998 35.7361 445.441 71.0519V84.7788C442.102 119.096 414.003 146.332 379.274 147.889H87.0513C50.0384 146.241 20.5586 115.644 20.5586 78.1571C20.5586 39.6236 51.7186 8.11304 90.1869 8.11304H376.139Z" fill="white"/>
<path fill-rule="evenodd" clip-rule="evenodd" d="M90.1876 13.7847H376.139C411.463 13.7847 440.101 42.4981 440.101 77.913V78.1596C440.101 113.582 411.463 142.295 376.139 142.295H90.1876C54.867 142.295 26.2285 113.582 26.2285 78.1596V77.913C26.2285 42.4981 54.867 13.7847 90.1876 13.7847Z" fill="black"/>
<path fill-rule="evenodd" clip-rule="evenodd" d="M154.799 57.7359L140.596 120.805H166.974L173.308 88.2529C174.524 83.5314 179.233 78.8896 183.858 78.0773H219.408C221.601 71.973 226.958 71.4846 229.555 71.6466C236.614 72.0528 234.586 78.0773 229.064 79.2958C213.807 82.6344 185.478 80.9252 186.048 104.934C186.293 116.002 197.655 122.273 209.018 122.432C219.002 122.592 225.658 118.361 225.658 118.361L226.385 120.803H253.012C252.463 120.068 252.049 119.241 251.789 118.361C251.474 117.446 251.337 116.48 251.388 115.513L258.363 82.5498C261.38 68.3007 258.778 57.4047 232.149 55.9421C221.843 55.3716 201.712 59.3581 196.272 69.6908L199.928 58.1397C187.753 51.6292 177.12 63.9998 177.12 63.9998L175.74 57.7335L154.799 57.7359ZM301.634 33.4007H276.792L257.074 120.805H283.37L301.634 33.4007ZM379.874 33.3186L336.368 33.4007L329.304 65.8735H308.858L305.365 83.7779H325.244L316.732 120.805H367.462C403.177 120.805 408.849 88.0087 393.026 76.6099C409.098 69.9374 411.368 33.2581 379.874 33.3186Z" fill="white"/>
<path fill-rule="evenodd" clip-rule="evenodd" d="M351.628 84.3436L348.468 99.2358H361.448C378.332 99.2358 378.168 84.3436 365.594 84.3436H351.628Z" fill="black" stroke="black" stroke-width="0.352964" stroke-miterlimit="2.613"/>
<path fill-rule="evenodd" clip-rule="evenodd" d="M357.963 53.8268L355.195 67.6577H367.293C382.956 67.6577 382.879 53.8268 371.187 53.8268H357.963Z" fill="black" stroke="black" stroke-width="0.319118" stroke-miterlimit="2.613"/>
<path fill-rule="evenodd" clip-rule="evenodd" d="M230.121 92.3192C224.196 120.24 193.19 95.9818 230.121 92.3192Z" fill="black" stroke="black" stroke-width="0.389228" stroke-miterlimit="2.613" stroke-linejoin="bevel"/>
<path fill-rule="evenodd" clip-rule="evenodd" d="M55.3643 85.3833C56.6649 51.2787 80.5287 31.2588 105.449 31.9914C126.96 31.7472 146.683 43.5473 146.683 67.6383C146.199 100.928 125.824 122.251 96.7626 122.251C78.8243 123.634 56.0146 112.726 55.3643 85.3833Z" fill="white" stroke="white" stroke-width="0.176482" stroke-miterlimit="2.613"/>
<path fill-rule="evenodd" clip-rule="evenodd" d="M82.9658 83.6909C83.4518 61.8845 96.9273 53.0942 103.907 53.0942C112.267 53.2562 119.817 58.1397 118.92 71.4822C118.434 86.2947 108.125 102.326 97.1666 101.433C89.7012 101.842 82.9658 96.8812 82.9658 83.6909Z" fill="black" stroke="black" stroke-width="0.176482" stroke-miterlimit="2.613"/>
<path fill-rule="evenodd" clip-rule="evenodd" d="M415.697 90.5013C417.258 90.5048 418.804 90.1998 420.246 89.6039C421.689 89.008 422.999 88.1329 424.102 87.0289C425.205 85.925 426.079 84.6139 426.674 83.171C427.269 81.7281 427.572 80.182 427.568 78.6213C427.568 71.99 422.292 66.6761 415.697 66.6761C409.064 66.6761 403.813 71.99 403.813 78.6213C403.807 80.1835 404.11 81.7315 404.705 83.1759C405.3 84.6203 406.175 85.9325 407.28 87.037C408.385 88.1414 409.698 89.0161 411.142 89.6107C412.587 90.2053 414.135 90.508 415.697 90.5013ZM415.697 87.6824C410.5 87.6824 406.636 83.9013 406.636 78.6213C406.636 73.2809 410.5 69.4999 415.697 69.4999C420.796 69.4999 424.758 73.2809 424.758 78.6213C424.758 83.8989 420.798 87.6824 415.697 87.6824Z" fill="white"/>
<path fill-rule="evenodd" clip-rule="evenodd" d="M418.05 79.4288C420.265 79.279 421.578 78.3482 421.935 76.0708C422.46 72.7975 420.589 72.2874 417.738 72.2874H411.738L409.782 84.6459H412.541L413.377 79.4288H415.285L417.231 84.6459H420.224L418.05 79.4288ZM413.667 77.5673L414.153 74.4462H416.825C418.029 74.4462 419.61 74.4462 419.416 75.7058C419.165 77.2675 418.34 77.5673 416.96 77.5673H413.667Z" fill="white"/>
</svg>
